<svg width="1280" height="720" xmlns="http://www.w3.org/2000/svg" xmlns:xlink="http://www.w3.org/1999/xlink" overflow="hidden"><defs><clipPath id="clip0"><rect x="0" y="0" width="1280" height="720"/></clipPath><clipPath id="clip1"><rect x="3" y="132" width="1274" height="456"/></clipPath><clipPath id="clip2"><rect x="3" y="132" width="1274" height="456"/></clipPath><clipPath id="clip3"><rect x="3" y="103" width="1274" height="1799"/></clipPath></defs><g clip-path="url(#clip0)"><rect x="0" y="0" width="1280" height="720" fill="#0D1117"/><g clip-path="url(#clip1)"><g clip-path="url(#clip2)"><g clip-path="url(#clip3)"><path d="M0 4.20788 1279.19 4.20788 1279.19 507.049-1.84839e-05 507.049Z" stroke="#0D1117" stroke-width="5.8973" stroke-linecap="round" stroke-linejoin="round" fill="#0D1117" transform="matrix(1.00163 0 0 1 3 103.047)"/><path d="M-137.514-103.014C-137.514-46.7289-167.542 5.28031-216.286 33.4227-265.03 61.565-325.085 61.565-373.829 33.4227" stroke="#FFD013" stroke-width="24.2374" stroke-linecap="round" stroke-linejoin="round" fill="none" transform="matrix(-0.86153 -0.50925 0.510439 -0.859916 3 103.047)"/><path d="M483.728 117.859C483.728 174.137 453.704 226.141 404.965 254.28 356.227 282.42 296.178 282.42 247.439 254.28" stroke="#C01301" stroke-width="24.2347" stroke-linecap="round" stroke-linejoin="round" fill="none" transform="matrix(0.899853 0.438489 -0.439579 0.898206 3 103.047)"/><path d="M79.5964 303.369C79.5964 359.652 49.5695 411.66 0.826623 439.802-47.9163 467.944-107.97 467.944-156.713 439.802" stroke="#FD8001" stroke-width="24.2368" stroke-linecap="round" stroke-linejoin="round" fill="none" transform="matrix(0.495335 -0.868702 0.86999 0.494754 3 103.047)"/><path d="M251.408-330.144C251.408-273.852 221.377-221.836 172.627-193.691 123.877-165.545 63.8145-165.545 15.0645-193.691" stroke="#3C3377" stroke-width="24.2404" stroke-linecap="round" stroke-linejoin="round" fill="none" transform="matrix(-0.579161 0.815213 -0.816392 -0.578429 3 103.047)"/><path d="M491.874-110.615C478.722-110.615 467.421-105.757 457.972-96.0399 448.523-86.3229 443.798-74.5721 443.798-60.7876 443.798-51.8992 445.952-43.6134 450.261-35.9302 454.57-28.247 460.391-22.3151 467.723-18.1346 475.056-13.954 483.106-11.8637 491.874-11.8637 500.643-11.8637 508.693-13.954 516.026-18.1346 523.358-22.3151 529.179-28.247 533.488-35.9302 537.796-43.6134 539.951-51.8992 539.951-60.7876 539.951-74.5721 535.207-86.3229 525.72-96.0399 516.234-105.757 504.952-110.615 491.874-110.615ZM716.139-110.841C707.336-110.841 699.211-108.678 691.762-104.352 684.313-100.025 678.388-93.9493 673.986-86.1243 669.585-78.2993 667.384-70.0232 667.384-61.296 667.384-52.643 669.604-44.3667 674.043-36.4669 678.482-28.5672 684.444-22.4164 691.93-18.0145 699.416-13.6127 707.448-11.4118 716.026-11.4118 724.679-11.4118 732.88-13.5939 740.629-17.958 748.378-22.3222 754.341-28.2285 758.516-35.6769 762.692-43.1253 764.78-51.5143 764.78-60.8441 764.78-75.0641 760.096-86.952 750.729-96.5077 741.362-106.063 729.832-110.841 716.139-110.841ZM287.962-110.841C279.159-110.841 271.033-108.678 263.584-104.352 256.136-100.025 250.21-93.9493 245.809-86.1243 241.408-78.2993 239.207-70.0232 239.207-61.296 239.207-52.643 241.427-44.3667 245.866-36.4669 250.305-28.5672 256.267-22.4164 263.753-18.0145 271.239-13.6127 279.271-11.4118 287.849-11.4118 296.502-11.4118 304.703-13.5939 312.452-17.958 320.201-22.3222 326.163-28.2285 330.339-35.6769 334.515-43.1253 336.603-51.5143 336.603-60.8441 336.603-75.0641 331.919-86.952 322.552-96.5077 313.184-106.063 301.654-110.841 287.962-110.841ZM383.576-122.931 399.62-122.931 399.62 18.53C399.62 28.8496 397.756 36.3633 394.027 41.0712 390.299 45.779 385.195 48.1329 378.717 48.1329 373.369 48.1329 367.343 46.8524 360.639 44.2913L360.639 30.0548C364.858 32.2393 368.661 33.3315 372.051 33.3315 376.345 33.3315 379.546 31.5613 381.655 28.021 382.936 25.7613 383.576 21.0534 383.576 13.8975ZM714.839-126.095C724.933-126.095 734.066-123.948 742.239-119.654 750.412-115.361 757.587-108.921 763.763-100.333L763.763-122.931 779.356-122.931 779.356 0 763.763 0 763.763-21.1288C757.135-13.069 749.696-7.00526 741.448-2.93769 733.2 1.12988 724.18 3.16367 714.388 3.16367 696.987 3.16367 682.129-3.14483 669.814-15.7618 657.498-28.3788 651.34-43.7264 651.34-61.8045 651.34-79.506 657.555-94.6464 669.983-107.226 682.412-119.805 697.364-126.095 714.839-126.095ZM626.653-126.095C631.022-126.095 635.692-124.701 640.664-121.914L632.416-108.582C629.101-110.013 626.314-110.728 624.054-110.728 618.782-110.728 613.697-108.563 608.801-104.232 603.905-99.9003 600.176-93.1775 597.615-84.0631 595.657-77.0579 594.678-62.8967 594.678-41.5796L594.678 0 578.52 0 578.52-122.931 594.678-122.931 594.678-104.966C599.498-112.047 604.583-117.338 609.931-120.841 615.279-124.343 620.853-126.095 626.653-126.095ZM491.931-126.095C510.871-126.095 526.566-119.24 539.017-105.531 550.336-93.0269 555.995-78.2254 555.995-61.1266 555.995-43.9524 550.015-28.9438 538.055-16.1008 526.094-3.25782 510.72 3.16367 491.931 3.16367 473.067 3.16367 457.654-3.25782 445.694-16.1008 433.734-28.9438 427.754-43.9524 427.754-61.1266 427.754-78.1501 433.413-92.9139 444.732-105.418 457.183-119.202 472.916-126.095 491.931-126.095ZM286.662-126.095C296.756-126.095 305.889-123.948 314.062-119.654 322.235-115.361 329.409-108.921 335.586-100.333L335.586-122.931 351.178-122.931 351.178 0 335.586 0 335.586-21.1288C328.958-13.069 321.519-7.00526 313.271-2.93769 305.023 1.12988 296.003 3.16367 286.21 3.16367 268.81 3.16367 253.952-3.14483 241.637-15.7618 229.321-28.3788 223.163-43.7264 223.163-61.8045 223.163-79.506 229.377-94.6464 241.806-107.226 254.235-119.805 269.187-126.095 286.662-126.095ZM36.4493-166.205 39.1486-166.205 106.717-29.8289 173.634-166.205 176.297-166.205 200.215 0 183.927 0 167.505-118.863 108.74 0 104.495 0 45.0258-119.767 28.699 0 12.6547 0ZM391.372-173.55C394.988-173.55 398.057-172.269 400.581-169.708 403.104-167.147 404.366-164.059 404.366-160.443 404.366-156.903 403.104-153.852 400.581-151.291 398.057-148.73 394.988-147.449 391.372-147.449 387.756-147.449 384.687-148.73 382.164-151.291 379.64-153.852 378.378-156.903 378.378-160.443 378.378-164.059 379.64-167.147 382.164-169.708 384.687-172.269 387.756-173.55 391.372-173.55Z" stroke="#FFFFFF" stroke-width="5.87186" stroke-linecap="round" stroke-linejoin="round" fill="#FFFFFF" fill-rule="evenodd" transform="matrix(1 0 0 1.01033 436.978 430.692)"/><text fill="#000000" fill-opacity="0" font-family="Arial,Arial_MSFontService,sans-serif" font-size="221.683" x="12.6547" y="20.4226">Majora</text></g></g></g></g></svg>